<svg xmlns="http://www.w3.org/2000/svg" xmlns:xlink="http://www.w3.org/1999/xlink" viewBox="0,0,256,256" width="100px" height="100px" fill-rule="nonzero"><g fill-opacity="0" fill="#dddddd" fill-rule="nonzero" stroke="none" stroke-width="1" stroke-linecap="butt" stroke-linejoin="miter" stroke-miterlimit="10" stroke-dasharray="" stroke-dashoffset="0" font-family="none" font-weight="none" font-size="none" text-anchor="none" style="mix-blend-mode: normal"><path d="M0,256v-256h256v256z" id="bgRectangle"></path></g><g fill="#000000" fill-rule="nonzero" stroke="none" stroke-width="1" stroke-linecap="butt" stroke-linejoin="miter" stroke-miterlimit="10" stroke-dasharray="" stroke-dashoffset="0" font-family="none" font-weight="none" font-size="none" text-anchor="none" style="mix-blend-mode: normal"><g transform="scale(2.56,2.56)"><path d="M64.54492,16.00586c-0.38059,0.0089 -0.76352,0.02895 -1.14844,0.06055c-9.03189,0.74094 -16.38274,7.98902 -17.29883,17.00195c-0.30042,2.95464 0.16479,5.75682 1.0918,8.32813l-28.80664,28.80469c-3.14612,3.14612 -3.14612,8.27771 0,11.42383c3.14612,3.14612 8.27771,3.14612 11.42383,0l28.8125,-28.8125c2.57139,0.9251 5.37139,1.39124 8.32617,1.08789c9.00555,-0.92243 16.24628,-8.26939 16.98828,-17.29492c0.25276,-3.07417 -0.22868,-6.02238 -1.29102,-8.67187c-0.15231,-0.37874 -0.51952,-0.62689 -0.92773,-0.62695h-0.00195c-0.2652,0.00005 -0.51952,0.10543 -0.70703,0.29297l-10.62109,10.61914c-1.04104,1.04104 -2.69724,1.04104 -3.73828,0l-4.85547,-4.85742c-1.04104,-1.04104 -1.04104,-2.69529 0,-3.73633l10.62305,-10.625c0.18754,-0.18751 0.29292,-0.44183 0.29297,-0.70703c0.00074,-0.40893 -0.24755,-0.77711 -0.62695,-0.92969c-2.32115,-0.93326 -4.87103,-1.41971 -7.53516,-1.35742zM65.18359,18.01758c1.60055,0.04551 3.13316,0.34336 4.60547,0.7793l-9.41406,9.41211c-1.80496,1.80496 -1.80496,4.76145 0,6.56641l4.85742,4.85742c1.80496,1.80496 4.76145,1.80496 6.56641,0l9.4082,-9.40625c0.57781,1.95917 0.91255,4.02407 0.73242,6.21484c-0.662,8.05247 -7.15682,14.64518 -15.19727,15.46875c-2.873,0.29496 -5.59541,-0.14916 -8.05469,-1.13477c-0.37173,-0.14941 -0.79676,-0.06256 -1.08008,0.2207l-29.21484,29.21289c-2.38188,2.38188 -6.21382,2.38188 -8.5957,0c-2.38188,-2.38188 -2.38188,-6.21187 0,-8.59375l29.21094,-29.20898c0.28326,-0.28332 0.37011,-0.70834 0.2207,-1.08008c-0.98752,-2.45934 -1.43471,-5.18155 -1.14258,-8.05469c0.81791,-8.04707 7.4165,-14.54988 15.47461,-15.21094c0.54912,-0.04507 1.08953,-0.05814 1.62305,-0.04297zM79.04102,37.99414c-0.21916,0.01481 -0.40298,0.17091 -0.45312,0.38477c-0.08177,0.32518 -0.1751,0.64542 -0.28125,0.96289c-0.06775,0.17209 -0.03499,0.36752 0.08518,0.5081c0.12017,0.14058 0.30812,0.20336 0.48865,0.16322c0.18053,-0.04014 0.32417,-0.17665 0.37344,-0.35491c0.11385,-0.34053 0.21646,-0.68628 0.30469,-1.03711c0.0413,-0.15586 0.0049,-0.32208 -0.09775,-0.44642c-0.10265,-0.12434 -0.25896,-0.19156 -0.41983,-0.18053zM77.92188,40.99414c-0.18253,0.00737 -0.34652,0.1137 -0.42773,0.27734c-0.34671,0.67604 -0.74603,1.321 -1.19531,1.93164c-0.1086,0.14361 -0.1316,0.33452 -0.06023,0.49982c0.07137,0.1653 0.2261,0.27947 0.4051,0.29891c0.179,0.01944 0.35463,-0.05885 0.45982,-0.20498c0.48071,-0.65336 0.90996,-1.3444 1.28125,-2.06836c0.08421,-0.15836 0.07716,-0.34969 -0.01848,-0.50142c-0.09564,-0.15173 -0.26522,-0.24062 -0.44441,-0.23295zM50.49023,43.94336c-0.13004,0.00413 -0.25335,0.05878 -0.34375,0.15234l-1,1c-0.13061,0.12541 -0.18322,0.31163 -0.13755,0.48685c0.04568,0.17522 0.18251,0.31205 0.35773,0.35773c0.17522,0.04568 0.36144,-0.00693 0.48685,-0.13755l1,-1c0.14862,-0.14363 0.19356,-0.3639 0.11309,-0.55428c-0.08048,-0.19038 -0.26979,-0.31162 -0.47637,-0.3051zM75.00195,44.93359c-0.13001,0.00052 -0.25471,0.05166 -0.34766,0.14258c-2.20185,2.10906 -5.07278,3.52369 -8.21484,3.8457c-0.17794,0.01813 -0.33269,0.12982 -0.40596,0.293c-0.07326,0.16317 -0.0539,0.35304 0.05078,0.49806c0.10469,0.14503 0.2788,0.22319 0.45674,0.20503c3.37593,-0.34598 6.45054,-1.8642 8.80469,-4.11914c0.15021,-0.14051 0.19907,-0.35866 0.12312,-0.54982c-0.07594,-0.19115 -0.26119,-0.3163 -0.46687,-0.31542zM47.99023,46.44336c-0.13004,0.00413 -0.25335,0.05878 -0.34375,0.15234l-1.5,1.49805c-0.13061,0.12541 -0.18322,0.31163 -0.13755,0.48685c0.04568,0.17522 0.18251,0.31205 0.35773,0.35773c0.17522,0.04568 0.36144,-0.00693 0.48685,-0.13755l1.5,-1.49805c0.14862,-0.14363 0.19356,-0.3639 0.11309,-0.55428c-0.08048,-0.19038 -0.26979,-0.31162 -0.47637,-0.3051zM44.99023,49.44336c-0.12976,0.00361 -0.25303,0.05754 -0.34375,0.15039l-15.5,15.49609c-0.13061,0.12541 -0.18322,0.31163 -0.13755,0.48685c0.04568,0.17522 0.18251,0.31205 0.35773,0.35773c0.17522,0.04568 0.36144,-0.00693 0.48685,-0.13755l15.5,-15.49609c0.14714,-0.14386 0.19113,-0.36316 0.11086,-0.55264c-0.08028,-0.18947 -0.26844,-0.31042 -0.47414,-0.30478zM24,73c-1.65093,0 -3,1.34907 -3,3c0,1.65093 1.34907,3 3,3c1.65093,0 3,-1.34907 3,-3c0,-1.65093 -1.34907,-3 -3,-3zM24,74c1.11049,0 2,0.88951 2,2c0,1.11049 -0.88951,2 -2,2c-1.11049,0 -2,-0.88951 -2,-2c0,-1.11049 0.88951,-2 2,-2z"></path></g></g></svg>